<svg height="24" viewBox="0 0 24 24" width="24" xmlns="http://www.w3.org/2000/svg"><path d="m17.73 12.02 3.98-3.98c.39-.39.39-1.02 0-1.41l-4.34-4.34c-.39-.39-1.02-.39-1.41 0l-3.98 3.98-3.98-3.98c-.2-.19-.45-.29-.71-.29-.25 0-.51.1-.7.29l-4.34 4.34c-.39.39-.39 1.02 0 1.41l3.98 3.98-3.98 3.98c-.39.39-.39 1.02 0 1.41l4.34 4.34c.39.39 1.02.39 1.41 0l3.98-3.98 3.98 3.98c.2.2.45.29.71.29s.51-.1.71-.29l4.34-4.34c.39-.39.39-1.02 0-1.41zm-5.73-3.02c.55 0 1 .45 1 1s-.45 1-1 1-1-.45-1-1 .45-1 1-1zm-4.71 1.96-3.63-3.62 3.63-3.63 3.62 3.62zm2.71 2.04c-.55 0-1-.45-1-1s.45-1 1-1 1 .45 1 1-.45 1-1 1zm2 2c-.55 0-1-.45-1-1s.45-1 1-1 1 .45 1 1-.45 1-1 1zm2-4c.55 0 1 .45 1 1s-.45 1-1 1-1-.45-1-1 .45-1 1-1zm2.66 9.34-3.63-3.62 3.63-3.63 3.62 3.62z"/></svg>