<svg height="24" viewBox="0 0 24 24" width="24" xmlns="http://www.w3.org/2000/svg"><path d="m11.61 12.97c-.16-.24-.36-.46-.62-.65-.25-.19-.56-.35-.93-.48.3-.14.57-.3.8-.5s.42-.41.57-.64.27-.46.34-.71c.08-.24.11-.49.11-.73 0-.55-.09-1.04-.28-1.46-.18-.42-.44-.77-.78-1.06-.33-.28-.73-.5-1.2-.64-.45-.13-.97-.2-1.53-.2-.55 0-1.06.08-1.52.24-.47.17-.87.4-1.2.69s-.6.63-.78 1.03c-.2.39-.29.83-.29 1.29h1.98c0-.26.05-.49.14-.69s.22-.38.38-.52c.17-.14.36-.25.58-.33s.46-.12.73-.12c.61 0 1.06.16 1.36.47s.44.75.44 1.32c0 .27-.04.52-.12.74s-.21.41-.38.57-.38.28-.63.37-.55.13-.89.13h-1.17v1.57h1.18c.34 0 .64.04.91.11.27.08.5.19.69.35s.34.36.44.61c.1.24.16.54.16.87 0 .62-.18 1.09-.53 1.42s-.84.49-1.45.49c-.29 0-.56-.04-.8-.13-.24-.08-.44-.2-.61-.36s-.3-.34-.39-.56-.14-.46-.14-.72h-1.99c0 .55.11 1.03.32 1.45s.5.77.86 1.05.77.49 1.24.63.96.21 1.48.21c.57 0 1.09-.08 1.58-.23s.91-.38 1.26-.68c.36-.3.64-.66.84-1.1.2-.43.3-.93.3-1.48 0-.29-.04-.58-.11-.86-.08-.25-.19-.51-.35-.76zm9.26 1.4c-.14-.28-.35-.53-.63-.74s-.61-.39-1.01-.53-.85-.27-1.35-.38c-.35-.07-.64-.15-.87-.23s-.41-.16-.55-.25-.23-.19-.28-.3-.08-.24-.08-.39.03-.28.09-.41.15-.25.27-.34c.12-.1.27-.18.45-.24s.4-.09.64-.09c.25 0 .47.04.66.11s.35.17.48.29.22.26.29.42c.06.16.1.32.1.49h1.95c0-.39-.08-.75-.24-1.09s-.39-.63-.69-.88-.66-.44-1.09-.59-.92-.22-1.46-.22c-.51 0-.98.07-1.39.21s-.77.33-1.06.57-.51.52-.67.84-.23.65-.23 1.01.08.68.23.96.37.52.64.73.6.38.98.53c.38.14.81.26 1.27.36.39.08.71.17.95.26s.43.19.57.29c.13.1.22.22.27.34s.07.25.07.39c0 .32-.13.57-.4.77s-.66.29-1.17.29c-.22 0-.43-.02-.64-.08-.21-.05-.4-.13-.56-.24-.17-.11-.3-.26-.41-.44s-.17-.41-.18-.67h-1.89c0 .36.08.71.24 1.05s.39.65.7.93c.31.27.69.49 1.15.66s.98.25 1.58.25c.53 0 1.01-.06 1.44-.19s.8-.31 1.11-.54.54-.51.71-.83.25-.67.25-1.06c-.02-.4-.09-.74-.24-1.02z"/></svg>