<svg height="24" viewBox="0 0 24 24" width="24" xmlns="http://www.w3.org/2000/svg"><path d="m12 5v-4l-5 5 5 5v-4c3.3 0 6 2.7 6 6s-2.7 6-6 6-6-2.7-6-6h-2c0 4.4 3.6 8 8 8s8-3.6 8-8-3.6-8-8-8zm-2.4 8.5h.4c.2 0 .4-.1.5-.2s.2-.2.2-.4v-.2s-.1-.1-.1-.2-.1-.1-.2-.1h-.5s-.1.1-.2.1-.1.1-.1.2v.2h-1c0-.2 0-.3.1-.5s.2-.3.3-.4.3-.2.4-.2.4-.1.5-.1c.2 0 .4 0 .6.1s.3.1.5.2.2.2.3.4.1.3.1.5v.3s-.1.2-.1.3-.1.2-.2.2-.2.1-.3.2c.2.1.4.2.5.4s.2.4.2.6 0 .4-.1.5-.2.3-.3.4-.3.2-.5.2-.4.1-.6.1-.4 0-.5-.1-.3-.1-.5-.2-.2-.2-.3-.4-.1-.4-.1-.6h.8v.2s.1.1.1.2.1.1.2.1h.5s.1-.1.2-.1.1-.1.1-.2v-.5s-.1-.1-.1-.2-.1-.1-.2-.1h-.6zm5.7.7c0 .3 0 .6-.1.8l-.3.6s-.3.3-.5.3-.4.1-.6.1-.4 0-.6-.1-.3-.2-.5-.3-.2-.3-.3-.6-.1-.5-.1-.8v-.7c0-.3 0-.6.1-.8l.3-.6s.3-.3.5-.3.4-.1.6-.1.4 0 .6.1.3.2.5.3.2.3.3.6.1.5.1.8zm-.8-.8v-.5c0-.1-.1-.2-.1-.3s-.1-.1-.2-.2-.2-.1-.3-.1-.2 0-.3.1l-.2.2s-.1.2-.1.3v2s.1.2.1.3.1.1.2.2.2.1.3.1.2 0 .3-.1l.2-.2s.1-.2.1-.3z"/></svg>