<svg height="24" viewBox="0 0 24 24" width="24" xmlns="http://www.w3.org/2000/svg"><path d="m12 5v-4l-5 5 5 5v-4c3.3 0 6 2.7 6 6s-2.7 6-6 6-6-2.7-6-6h-2c0 4.4 3.6 8 8 8s8-3.6 8-8-3.6-8-8-8zm-1.3 8.9.2-2.2h2.4v.7h-1.7l-.1.9s.1 0 .1-.1.1 0 .1-.1.1 0 .2 0h.2c.2 0 .4 0 .5.1s.3.2.4.3.2.3.3.5.1.4.1.6 0 .4-.1.5-.1.3-.3.5-.3.2-.4.3-.4.1-.6.1-.4 0-.5-.1-.3-.1-.5-.2-.2-.2-.3-.4-.1-.3-.1-.5h.8c0 .2.1.3.2.4s.2.1.4.1c.1 0 .2 0 .3-.1l.2-.2s.1-.2.1-.3v-.6l-.1-.2-.2-.2s-.2-.1-.3-.1h-.2s-.1 0-.2.1-.1 0-.1.1-.1.1-.1.1z"/></svg>