<svg height="24" viewBox="0 0 24 24" width="24" xmlns="http://www.w3.org/2000/svg"><path d="m23 16v-1.5c0-1.4-1.1-2.5-2.5-2.5s-2.5 1.1-2.5 2.5v1.5c-.5 0-1 .5-1 1v4c0 .5.5 1 1 1h5c.5 0 1-.5 1-1v-4c0-.5-.5-1-1-1zm-1 0h-3v-1.5c0-.8.7-1.5 1.5-1.5s1.5.7 1.5 1.5z"/><path d="m15.5 14.5c0-2.8 2.2-5 5-5 .4 0 .7 0 1 .1l2.1-2.6c-.4-.3-4.9-4-11.6-4s-11.2 3.7-11.6 4l11.6 14.5 3.5-4.3z" opacity=".3"/><path d="m4.8 12.5 7.2 9 3.5-4.4v-2.6c0-1.3.5-2.5 1.4-3.4-1.3-.6-2.9-1.1-4.9-1.1-4.1 0-6.8 2.2-7.2 2.5z"/></svg>