<svg viewBox="0 0 512 512" xmlns="http://www.w3.org/2000/svg"><path d="m126.12 315.1a47.06 47.06 0 1 1 -47.06-47.1h47.06zm23.72 0a47.06 47.06 0 0 1 94.12 0v117.84a47.06 47.06 0 1 1 -94.12 0zm47.06-188.98a47.06 47.06 0 1 1 47.1-47.06v47.06zm0 23.72a47.06 47.06 0 0 1 0 94.12h-117.84a47.06 47.06 0 0 1 0-94.12zm188.98 47.06a47.06 47.06 0 1 1 47.06 47.1h-47.06zm-23.72 0a47.06 47.06 0 0 1 -94.12 0v-117.84a47.06 47.06 0 1 1 94.12 0zm-47.06 188.98a47.06 47.06 0 1 1 -47.1 47.06v-47.06zm0-23.72a47.06 47.06 0 0 1 0-94.12h117.84a47.06 47.06 0 1 1 0 94.12z"/></svg>