<svg fill="#0056a5" height="238pt" preserveAspectRatio="xMidYMid meet" viewBox="0 0 863 238" width="863pt" xmlns="http://www.w3.org/2000/svg"><g transform="matrix(.1 0 0 -.1 0 238)"><path d="m6900 2333c-18-21-70-77-116-124s-84-90-84-95 54-62 119-128l119-119 88 94c49 51 104 107 122 123 17 16 32 33 32 37 0 9-233 249-242 249-3 0-20-17-38-37z"/><path d="m10 1920v-199l174-3c95-2 181-2 190 0 14 3 16 26 16 203v199h-190-190z"/><path d="m7262 1813 3-198 190 3c105 2 214 0 243-3l52-6v-623c0-343 3-705 7-804l6-182h189 189l-1 808-2 807 236 3 236 2v195 195h-675-675z"/><path d="m3985 1990-350-5v-252c0-139 1-586 3-993l2-740h197 196l-6 390c-3 216-2 390 3 390 4 0 118 2 252 4s348 5 476 5l232 1v195 195h-485-485v210 210h485 485v184c0 101-3 191-6 200-7 17-180 18-999 6z"/><path d="m5133 1848c4-83 7-533 7-1000v-848h195 195v395 395l478 2 477 3 3 198 2 197h-485-485l2 208 3 207 483 3 482 2v195 195h-682-681z"/><path d="m1719 1979c-5-3-8-322-7-795l3-789 193-3 192-2v600 600h485 485v201 202l-671-4c-369-2-675-7-680-10z"/><path d="m540 1786c0-107 4-197 8-200 5-3 221-2 480 1l472 6v194 193h-480-480z"/><path d="m6743 1703c4-124 7-559 7-965v-738h190 190v965c0 531-3 965-6 965s-47-40-97-90l-92-90-90 90c-50 50-94 90-99 90s-6-96-3-227z"/><path d="m3080 984v-604h-490-490v-62c0-35 3-120 7-190l6-128h679 678l-2 793-3 792-192 1-193 1z"/><path d="m150 1170v-400h485 485v-195-195h-213c-118 0-336-3-485-7l-272-6v-184-183h680 680l-2 583-3 582h-485-485l-3 203-2 202h-190-190z"/></g></svg>