<svg enable-background="new 0 0 32 32" viewBox="0 0 32 32" xmlns="http://www.w3.org/2000/svg"><path d="m27 4v24c0 1.65-1.35 3-3 3h-16c-1.65 0-3-1.35-3-3v-24c0-1.65 1.35-3 3-3h16c1.65 0 3 1.35 3 3z" fill="#3f51b5"/><path d="m5 5v2h22v-2zm0 10v2h22v-2z" fill="#fff"/><g fill="#ffc10a"><circle cx="16" cy="21" r="2"/><path d="m13.5 27h-3.75c-.5522 0-1-.4478-1-1s.4478-1 1-1h3.75c.5522 0 1 .4478 1 1s-.4478 1-1 1z"/><path d="m22.25 27h-3.75c-.5522 0-1-.4478-1-1s.4478-1 1-1h3.75c.5522 0 1 .4478 1 1s-.4478 1-1 1z"/></g><path d="m5 7h22v8h-22z" fill="#2197f3"/></svg>