<svg height="700" width="800" viewBox="0 0 700 800">
  <path
    d="M203.55,44.35c-.1-3.85,2.17-8.89,5.57-14.22C105.68,75.94,28.26,169.92,5.23,283.67,19.71,261.18,37.81,245.09,39,243.73c9.13-10.2,18-20.61,27.26-30.73,2.49-2.72,6.88-4,11.88-3,.93.19,12-6,13.17-3.63-2.06,4-21.56,27.68-27.17,33.63-3,3.21-2.54,9.32-2,14.47.11,1-31,26.53-33,60.53-2,66,84,66,103.15,64,42.91-4.48,79.85-24,79.85-24C211.9,343,203.71,50.31,203.55,44.35ZM142,154.3c11.28-8.53,25.48-8.7,31,11.58,4.48,16.4-17.13,20-17.13,20s-4.23-.32-3.91-4.55c.62-8,15.2-3.14,15.07-11.62-.11-7.81-7.94-12.22-13-6-7,8.69-11.7,23.22-11.7,23.22s-6.39.23-10.3-4.33S129.23,164,142,154.3Zm2.91,136.4c7,5.42,13.83,11.06,19.51,17.88,4.93,5.89,3.66,10.72,2.21,12.36-4.43,5-18.17,20.84-21.08,23.7-17.2,16.83-46.39-22.12-48.2-25.17-5-7,9.53-23.54,13.39-28.19,1-1.22,7.43-7.8,8.61-8.81,7-6-25-17-10-38,2.73-3.83,21-35,38-26,3.41,2.21,22.23,14.7,28,21,8,8-22,36.27-24.51,39.68C149.13,281.53,141.38,288.47,144.94,290.7Z" />
  <path
    d="M339.43,389.4a75.43,75.43,0,0,1-.48,25.77C337.16,421,320.16,409,320.16,404c-.87-3.72,9.8-15.42,11-16C334.19,386.53,338.8,386.12,339.43,389.4Z" />
  <path
    d="M440.16,45C441,38.6,445,35.4,460,16.77a355.37,355.37,0,0,0-216.29.17c2.42,10.53,7.05,23.18,16.54,30.79,3.79,3.05,7.17,5.2,8.59,9.66.26.82,1.28,13.61.28,19.61s-17.8,14-17.8,19.33c.59,13.11,1.09,218.21,1.68,231.32,0,.92.12,4.35.12,4.35s2.41-2.33,3-2.87c8.56-7.25,76.62-68.47,85.67-76,39.28-34.09,61.53-16,65.35-10.27,5.29,7.87,18.93,42.18-27,78.87-2.76,2.2-4.56,2.37-7.16,0-4.06-3.65-16.55,5.56-14.88-.73.19-.72,14-16,13-25,0-4.61-8-29-42.71,3.15-4.75,4.4-75.29,69.85-75.13,69.85.18,6.61-1.31,66.1-2.16,72-.22,1.51-10,29-30,44.48-2.36,2.55-4.36,2.61-6.23-.36-2.51-4-2.45-8.5-2.23-13a71.81,71.81,0,0,0-.2-7.76c-.2-3.24,0-61.23-.34-65.33a35.12,35.12,0,0,1-3.33,2.15c-6,3.52-11.79,7.22-17.85,10.53-6.3,3.43-22.82,11.32-22.82,11.32-8.93,23.64,1,46,6.32,52.66C179.16,483,197.16,507,235.16,506c45-4,74-25,80-32l-5-3c-11-8-23.33-23.67-25-27-13.3-20.62,1.25-38.82,4.55-44.52,19.45-33.48,55.93-63,63.75-64.69,28.7-7.79,33.7,15.21,31.86,38.47-3.16,31.74-11.47,49.79-12.08,52.05-1.05,3.91-.05,4.24,3.1,4.4,12.32.6,57.46-6.26,59.9-7.36,1.09-.5,2-2.55,2.06-3.93.16-5.36-1.14-301.54-.59-326.77C438,79.07,439.05,57.55,440.16,45Zm-167,241c-.82,2.88-3,2-3,1,0-15.13-3-87-3-87l7-5C279.16,196,275.16,279,273.16,286Z" />
  <path d="M484.92,516c-.53-1.48-1-2.86-1.47-4.06C482.79,510.12,484.81,514.08,484.92,516Z" />
  <path
    d="M683.32,480C632.71,613.86,503.53,709,352.16,709,168.89,709,18.14,569.53,0,390.79,6.51,400.9,16.34,410.9,31.16,420c47,24,105.93,12.07,107,12,0,.27-18,52,5,88,5,7,27,40,70.24,41.31,72.76-2.31,102.26-52.59,108.36-59.49,4.2-4.75,10.56-13.77,14.4-18.82,0,0,.64.52,4.5,1.27a104.2,104.2,0,0,0,10.66,1.59,25.91,25.91,0,0,0,2.84.14c-.19.82-6.62,12.09-8.07,16.13-15.93,46.87,19.13,66.42,28.44,70.5C439.16,585,481.24,520.3,484.75,516.74a1,1,0,0,0,.17-.79c1.76,4.95,3.81,11,5.24,15,4.89,11.39,19.45,25.6,53,27C614.58,555.67,661.33,508.93,683.32,480Z" />
  <path
    d="M481.32,24.34c.5,9,2.42,19.13,8.84,28.66,4.45,6.74,14.68,17.56,15,25,.13,3.09-.5,19.94-1,23,0,8-21,11-20.64,17.5.1,11.12,1.66,295.32.64,306.5-1,11-30,43-39,46-13.76,4.59-39.14,9.07-48.05,9.9a82.89,82.89,0,0,0-9.18,1.63,6.1,6.1,0,0,0-4.59,5.27c-4.18,36.2,32.29,30.33,43.14,29.48C484.16,505,501.16,440,512.16,448c.72.53,15.3,45.18,43,51,93,7,113-40,104-68-1-3-5.29-4.1-8-4-6.39.24-26.69,12.08-31,15-12,8.15-19,13-39,27-5.86,4.1-25,16-36,14-6-3-11-13-11-13,26-17,74-47,105-82,18.78-21.2,46-24,64-6a23,23,0,0,1,1.8,1.89q1.18-14.53,1.2-29.39C706.16,204.36,613,76,481.32,24.34ZM675.16,325s-84,54-87,57,0-10,0-10l87-56Z" />
  <path class="cls-1"
    d="M483.45,511.89c.45,1.2.94,2.58,1.47,4.06C484.81,514.08,482.79,510.12,483.45,511.89Zm0,0c.45,1.2.94,2.58,1.47,4.06C484.81,514.08,482.79,510.12,483.45,511.89Zm0,0c.45,1.2.94,2.58,1.47,4.06C484.81,514.08,482.79,510.12,483.45,511.89Zm0,0c.45,1.2.94,2.58,1.47,4.06C484.81,514.08,482.79,510.12,483.45,511.89Z" />
</svg>
