<svg viewBox="0 0 725.52 577.39" height="24" width="24">
  <path
    d="M264,444.19c-.22,1.51-10,29-30,44.48-2.36,2.55-4.36,2.61-6.23-.37-2.51-4-2.45-8.49-2.23-13a71.81,71.81,0,0,0-.2-7.76c-.2-3.24,0-61.23-.34-65.33a35.12,35.12,0,0,1-3.33,2.15c-5.95,3.52-11.79,7.22-17.85,10.53-6.3,3.43-22.82,11.32-22.82,11.32-8.93,23.64,1,46,6.32,52.66C192,486.19,210,510.19,248,509.19c45-4,74-25,80-32l-5-3c-11-8-23.33-23.67-25-27-13.3-20.62,1.25-38.82,4.55-44.52,19.45-33.48,55.93-63,63.75-64.69,28.7-7.79,33.7,15.21,31.86,38.47-3.16,31.74-11.47,49.79-12.08,52.05-1.05,3.91-.05,4.24,3.1,4.39,12.32.61,57.46-6.25,59.9-7.36,1.09-.49,2-2.54,2.06-3.92.16-5.36-1.14-301.54-.59-326.77.28-12.58,1.34-34.1,2.45-46.65,1-8,7-11,33.34-45.31,1-1.43,3.13-3.52,4.66-2.69,8.11,4.39-4.11,32.09,12,56,4.45,6.74,14.68,17.56,15,25,.13,3.09-.5,19.93-1,23,0,8-21,11-20.64,17.5.1,11.11,1.66,295.32.64,306.5-1,11-30,43-39,46-13.76,4.58-39.14,9.06-48.05,9.9a82.89,82.89,0,0,0-9.18,1.63,6.1,6.1,0,0,0-4.59,5.27c-4.18,36.2,32.29,30.33,43.14,29.48C497,508.19,514,443.19,525,451.19c.72.53,15.3,45.17,43,51,93,7,113-40,104-68-1-3-5.29-4.1-8-4-6.39.24-26.69,12.08-31,15-12,8.15-19,13-39,27-5.86,4.1-25,16-36,14-6-3-11-13-11-13,26-17,74-47,105-82,18.78-21.2,46-24,64-6,15,14,12,50-7,79-9.94,17.31-61,94-153,97-33.55-1.4-48.11-15.61-53-27-1.86-5.27-4.76-13.87-6.71-19.11-.79-2.11,2.23,3.9,1.3,4.85-3.51,3.56-45.59,68.26-110.22,55.89-9.31-4.09-44.37-23.63-28.44-70.5,1.45-4,7.88-15.31,8.07-16.13a25.91,25.91,0,0,1-2.84-.14,104.2,104.2,0,0,1-10.66-1.59c-3.86-.75-4.5-1.27-4.5-1.27-3.84,5.05-10.2,14.07-14.4,18.82-6.1,6.9-35.6,57.18-108.36,59.49C183,563.19,161,530.19,156,523.19c-23-36-5-87.73-5-88-1.07.07-60,12-107-12-44-27-44-62-44-84,0-46,49.82-90,51.86-92.27,9.13-10.2,18-20.61,27.26-30.73,2.49-2.73,6.88-4,11.88-3,.93.19,12-6,13.17-3.63-2.06,4-21.56,27.68-27.17,33.63-3,3.21-2.54,9.32-2,14.46.11,1-31,26.54-33,60.54-2,66,84,66,103.15,64,42.91-4.48,79.85-24,79.85-24-.26-12-8.45-304.69-8.61-310.66-.39-14.34,32.18-45.12,33.33-46,1.64-1.29,3.21-1.55,3.87,1.07C254.71,7,256,37.19,273.13,50.92c3.79,3,7.17,5.2,8.59,9.66.26.82,1.28,13.61.28,19.61s-17.8,14-17.8,19.33c.59,13.1,1.09,218.21,1.68,231.32,0,.91.12,4.35.12,4.35s2.41-2.34,3.05-2.87c8.56-7.25,76.62-68.47,85.67-76,39.28-34.09,61.53-16,65.35-10.28,5.29,7.87,18.93,42.19-27,78.88-2.76,2.2-4.56,2.37-7.16,0-4.06-3.66-16.55,5.56-14.88-.73.19-.72,14-16,13-25,0-4.61-8-29-42.71,3.15-4.75,4.4-75.29,69.85-75.13,69.85C266.34,378.8,264.85,438.29,264,444.19Zm88.27-51.6c-.63-3.28-5.24-2.87-8.27-1.4-1.2.58-11.87,12.27-11,16,0,5,17,17,18.79,11.17A75.43,75.43,0,0,0,352.27,392.59Z" />
  <path
    d="M123.61,294.47c1-1.23,7.43-7.8,8.61-8.82,7-6-25-17-10-38,2.73-3.82,21-35,38-26,3.41,2.22,22.23,14.71,28,21,8,8-22,36.27-24.51,39.69-1.74,2.38-9.49,9.31-5.93,11.55,7,5.42,13.83,11.05,19.51,17.88,4.93,5.88,3.66,10.72,2.21,12.36-4.43,5-18.17,20.84-21.08,23.7-17.2,16.82-46.39-22.12-48.2-25.18C105.22,315.65,119.75,299.12,123.61,294.47Z" />
  <path d="M688,319.19l-87,56s-3,13,0,10,87-57,87-57Z" />
  <path d="M280,203.19s3,71.87,3,87c0,1,2.18,1.88,3-1,2-7,6-90,1-91Z" />
  <path
    d="M155.21,190.13s-6.39.22-10.3-4.33-2.84-18.65,10-28.32c11.28-8.52,25.48-8.69,31,11.59,4.48,16.4-17.13,20-17.13,20s-4.23-.32-3.91-4.55c.62-8,15.2-3.14,15.07-11.62-.11-7.81-7.94-12.22-13-6C159.87,175.59,155.21,190.13,155.21,190.13Z" />
</svg>
