<svg fill="#f16a30" height="215pt" preserveAspectRatio="xMidYMid meet" viewBox="0 0 556 215" width="556pt" xmlns="http://www.w3.org/2000/svg"><g transform="matrix(.1 0 0 -.1 0 215)"><path d="m255 2048c-9-51-69-392-133-758l-118-665 220-3c120-1 220-1 222 0 1 2 16 81 33 176l31 174 97 109 97 110 53-188c29-103 65-232 79-286l27-97h258c202 0 257 3 254 13-13 38-294 925-296 938-3 9 86 119 216 269 121 140 228 264 238 277l18 23h-210-210l-258-305c-142-168-259-302-260-298-1 5 21 142 50 306l53 297h-222-222z"/><path d="m2099 1765c-153-31-269-96-385-218-64-67-93-107-123-170-72-150-95-292-67-418 57-257 292-393 622-359 238 25 443 152 542 337l32 61-57 6c-32 3-98 8-148 11-49 3-115 8-146 11l-55 6-31-50c-38-62-96-92-175-92-41 0-64 6-89 23-36 24-46 49-48 114-2 79-33 73 389 73h378l11 63c16 90 14 213-4 282-31 119-120 228-228 279-110 52-280 68-418 41zm181-270c40-21 50-43 50-114v-61h-155c-170 0-165-2-144 61 17 49 57 99 93 115 42 18 120 17 156-1z"/><path d="m3511 1769c-77-13-184-52-249-91-77-45-209-179-255-258-88-152-121-358-79-497 49-160 161-262 342-309 87-23 269-22 370 1 147 33 290 120 382 231 41 50 93 142 85 151-10 9-402 32-405 23-12-33-70-94-105-111-81-36-197-17-217 36-6 15-10 55-10 91v64h379c331 0 380 2 385 15 3 9 11 56 17 106 21 163-16 300-108 400-99 106-199 148-373 154-58 2-129 0-159-6zm179-286c33-30 48-88 36-137l-6-26h-156-156l7 28c26 107 90 162 187 162 49 0 62-4 88-27z"/><path d="m5093 1765c-79-22-130-51-184-105l-48-48 6 31c3 18 9 49 13 69s5 39 2 43c-3 3-95 5-204 5-150 0-200-3-203-12-3-7-61-332-130-723-69-390-127-722-131-738l-6-27h226c124 0 226 1 226 3 0 1 18 104 40 227 22 124 40 228 40 233 0 4 17-11 37-34 69-76 172-107 292-88 251 40 437 296 481 664 29 241-42 419-194 486-64 28-190 35-263 14zm-64-276c58-20 76-87 60-226-21-189-67-319-129-360-66-46-148-20-166 52-10 39 56 410 81 460 14 28 33 47 65 63 52 26 48 25 89 11z"/><path d="m2108 426c-16-12-13-18 31-70 128-151 301-258 509-313 86-23 117-26 272-27 198-1 254 9 378 70 77 37 170 117 217 183 23 34 25 43 15 56-18 22-27 19-78-25-69-62-191-117-307-141-132-27-384-22-512 10-178 45-342 126-445 220-31 28-57 51-59 51s-12-6-21-14z"/></g></svg>
